<svg xmlns="http://www.w3.org/2000/svg" id="SvgjsSvg660976" width="2640" height="2640" version="1.1" xmlns:xlink="http://www.w3.org/1999/xlink" xmlns:svgjs="http://svgjs.com/svgjs"><defs id="SvgjsDefs660977"></defs><g id="SvgjsG660978" transform="translate(120, 120) scale(24)" opacity="1"><defs id="SvgjsDefs194184"></defs><g id="SvgjsG194185" transform="scale(0.35100035100035104)" opacity="1"><g id="SvgjsG194186" class="_siWo1PjW" transform="translate(0, 0) scale(2.8489999999999998)" light-content="false" fill="#2da571"><path d="M24 0h76v76c0 13.255-10.745 24-24 24H0V24C0 10.745 10.745 0 24 0z"></path></g><g id="SvgjsG194187" class="gpy-47MGAX" transform="translate(-5.927336610549375, 56.625595120895696) scale(1.7394763675833957)" light-content="true" fill="#ffffff"><path d="M85.3 30.1c-6.7-10.9-18.7-18.2-32.4-18.2-21 0-38.1 17-38.1 38.1s17 38.1 38.1 38.1c9 0 17.3-3.1 23.8-8.4L56.1 59.2l29.2-29.1zm-33.7 9.1c-3.5 0-6.4-2.9-6.4-6.4 0-3.5 2.9-6.4 6.4-6.4 3.5 0 6.4 2.9 6.4 6.4 0 3.5-2.9 6.4-6.4 6.4z"></path></g><g id="SvgjsG194188" class="lpxp_dod5l" transform="translate(114.87640767976514, 115.66707146250499) scale(0.37769974927797084)" light-content="true" fill="#ffffff"><path d="M73.004 79.427c0-3.555 2.881-6.427 6.428-6.427s6.426 2.872 6.426 6.427c0 3.545-2.879 6.427-6.426 6.427s-6.428-2.882-6.428-6.427zm19.428 0A6.427 6.427 0 0 1 98.865 73a6.417 6.417 0 0 1 6.417 6.427c0 3.545-2.87 6.427-6.417 6.427a6.433 6.433 0 0 1-6.433-6.427zM73.004 98.86c0-3.555 2.881-6.435 6.428-6.435s6.426 2.88 6.426 6.435c0 3.536-2.879 6.415-6.426 6.415s-6.428-2.879-6.428-6.415zm19.428 0a6.434 6.434 0 0 1 6.433-6.435c3.547 0 6.417 2.88 6.417 6.435a6.419 6.419 0 0 1-6.417 6.415c-3.553 0-6.433-2.879-6.433-6.415zm-19.428 19.432c0-3.563 2.881-6.426 6.428-6.426s6.426 2.862 6.426 6.426c0 3.545-2.879 6.417-6.426 6.417s-6.428-2.872-6.428-6.417zm19.428 0a6.421 6.421 0 0 1 6.433-6.426 6.41 6.41 0 0 1 6.417 6.426 6.414 6.414 0 0 1-6.417 6.417c-3.553 0-6.433-2.872-6.433-6.417zm-19.428 19.415c0-3.545 2.881-6.417 6.428-6.417s6.426 2.872 6.426 6.417c0 3.564-2.879 6.426-6.426 6.426s-6.428-2.862-6.428-6.426zm19.428 0c0-3.545 2.881-6.417 6.433-6.417a6.414 6.414 0 0 1 6.417 6.417 6.41 6.41 0 0 1-6.417 6.426 6.42 6.42 0 0 1-6.433-6.426zm19.439-58.28A6.42 6.42 0 0 1 118.297 73a6.416 6.416 0 0 1 6.416 6.427c0 3.545-2.869 6.427-6.416 6.427a6.426 6.426 0 0 1-6.426-6.427zm19.427 0A6.417 6.417 0 0 1 137.715 73a6.421 6.421 0 0 1 6.426 6.427 6.427 6.427 0 0 1-6.426 6.427c-3.547 0-6.417-2.882-6.417-6.427zm19.432 0A6.417 6.417 0 0 1 157.147 73a6.427 6.427 0 0 1 6.433 6.427 6.433 6.433 0 0 1-6.433 6.427c-3.546 0-6.417-2.882-6.417-6.427zm19.424 0A6.424 6.424 0 0 1 176.58 73a6.426 6.426 0 1 1 0 12.854 6.43 6.43 0 0 1-6.426-6.427zM111.871 98.86a6.427 6.427 0 0 1 6.426-6.435c3.547 0 6.416 2.88 6.416 6.435a6.418 6.418 0 0 1-6.416 6.415 6.422 6.422 0 0 1-6.426-6.415zm19.427 0c0-3.555 2.87-6.435 6.417-6.435a6.428 6.428 0 0 1 6.426 6.435c0 3.536-2.874 6.415-6.426 6.415a6.419 6.419 0 0 1-6.417-6.415zm19.432 0c0-3.555 2.87-6.435 6.417-6.435a6.434 6.434 0 0 1 6.433 6.435c0 3.536-2.881 6.415-6.433 6.415a6.42 6.42 0 0 1-6.417-6.415zm19.424 0c0-3.555 2.879-6.435 6.426-6.435s6.428 2.88 6.428 6.435c0 3.536-2.881 6.415-6.428 6.415s-6.426-2.879-6.426-6.415zm-19.424 19.432a6.41 6.41 0 0 1 6.417-6.426 6.42 6.42 0 1 1 0 12.843 6.415 6.415 0 0 1-6.417-6.417zm19.424 0c0-3.563 2.879-6.426 6.426-6.426s6.428 2.862 6.428 6.426c0 3.545-2.881 6.417-6.428 6.417s-6.426-2.872-6.426-6.417zm-19.424 19.415a6.414 6.414 0 0 1 6.417-6.417 6.42 6.42 0 1 1 0 12.843 6.41 6.41 0 0 1-6.417-6.426zm19.424 0c0-3.545 2.879-6.417 6.426-6.417s6.428 2.872 6.428 6.417c0 3.564-2.881 6.426-6.428 6.426s-6.426-2.862-6.426-6.426zm-97.15 19.426c0-3.536 2.881-6.41 6.428-6.41s6.426 2.874 6.426 6.41a6.427 6.427 0 1 1-12.854 0zm19.428 0c0-3.536 2.881-6.41 6.433-6.41a6.414 6.414 0 0 1 6.417 6.41c0 3.561-2.87 6.435-6.417 6.435a6.43 6.43 0 0 1-6.433-6.435zm-19.428 19.439c0-3.545 2.881-6.433 6.428-6.433s6.426 2.888 6.426 6.433c0 3.549-2.879 6.428-6.426 6.428s-6.428-2.879-6.428-6.428zm19.428 0a6.439 6.439 0 0 1 6.433-6.433c3.547 0 6.417 2.888 6.417 6.433 0 3.549-2.87 6.428-6.417 6.428a6.431 6.431 0 0 1-6.433-6.428zm19.439-19.439c0-3.536 2.872-6.41 6.426-6.41a6.413 6.413 0 0 1 6.416 6.41c0 3.561-2.869 6.435-6.416 6.435a6.424 6.424 0 0 1-6.426-6.435zm19.427 0c0-3.536 2.87-6.41 6.417-6.41 3.552 0 6.426 2.874 6.426 6.41a6.42 6.42 0 1 1-12.843 0zm19.432 0c0-3.536 2.87-6.41 6.417-6.41 3.552 0 6.433 2.874 6.433 6.41a6.43 6.43 0 0 1-6.433 6.435 6.422 6.422 0 0 1-6.417-6.435zm19.424 0c0-3.536 2.879-6.41 6.426-6.41s6.428 2.874 6.428 6.41a6.428 6.428 0 0 1-12.854 0zm-58.283 19.439c0-3.545 2.872-6.433 6.426-6.433 3.547 0 6.416 2.888 6.416 6.433 0 3.549-2.869 6.428-6.416 6.428a6.424 6.424 0 0 1-6.426-6.428zm19.427 0c0-3.545 2.87-6.433 6.417-6.433 3.552 0 6.426 2.888 6.426 6.433a6.426 6.426 0 0 1-6.426 6.428c-3.547 0-6.417-2.879-6.417-6.428zm19.432 0c0-3.545 2.87-6.433 6.417-6.433a6.439 6.439 0 0 1 6.433 6.433 6.432 6.432 0 0 1-6.433 6.428c-3.546 0-6.417-2.879-6.417-6.428zm19.424 0c0-3.545 2.879-6.433 6.426-6.433s6.428 2.888 6.428 6.433c0 3.549-2.881 6.428-6.428 6.428s-6.426-2.879-6.426-6.428z"></path></g><g id="SvgjsG194189" class="LPLNxpm9ZY" transform="translate(180.7366686724936, 115.18659926456293) scale(0.38428156046216266)" light-content="true" fill="#ffffff"><path d="M73.004 79.427c0-3.555 2.881-6.427 6.428-6.427s6.426 2.872 6.426 6.427c0 3.545-2.879 6.427-6.426 6.427s-6.428-2.882-6.428-6.427zm19.428 0A6.427 6.427 0 0 1 98.865 73a6.417 6.417 0 0 1 6.417 6.427c0 3.545-2.87 6.427-6.417 6.427a6.433 6.433 0 0 1-6.433-6.427zM73.004 98.86c0-3.555 2.881-6.435 6.428-6.435s6.426 2.88 6.426 6.435c0 3.536-2.879 6.415-6.426 6.415s-6.428-2.879-6.428-6.415zm19.428 0a6.434 6.434 0 0 1 6.433-6.435c3.547 0 6.417 2.88 6.417 6.435a6.419 6.419 0 0 1-6.417 6.415c-3.553 0-6.433-2.879-6.433-6.415zm-19.428 19.432c0-3.563 2.881-6.426 6.428-6.426s6.426 2.862 6.426 6.426c0 3.545-2.879 6.417-6.426 6.417s-6.428-2.872-6.428-6.417zm19.428 0a6.421 6.421 0 0 1 6.433-6.426 6.41 6.41 0 0 1 6.417 6.426 6.414 6.414 0 0 1-6.417 6.417c-3.553 0-6.433-2.872-6.433-6.417zm-19.428 19.415c0-3.545 2.881-6.417 6.428-6.417s6.426 2.872 6.426 6.417c0 3.564-2.879 6.426-6.426 6.426s-6.428-2.862-6.428-6.426zm19.428 0c0-3.545 2.881-6.417 6.433-6.417a6.414 6.414 0 0 1 6.417 6.417 6.41 6.41 0 0 1-6.417 6.426 6.42 6.42 0 0 1-6.433-6.426zm19.439-58.28A6.42 6.42 0 0 1 118.297 73a6.416 6.416 0 0 1 6.416 6.427c0 3.545-2.869 6.427-6.416 6.427a6.426 6.426 0 0 1-6.426-6.427zm19.427 0A6.417 6.417 0 0 1 137.715 73a6.421 6.421 0 0 1 6.426 6.427 6.427 6.427 0 0 1-6.426 6.427c-3.547 0-6.417-2.882-6.417-6.427zm19.432 0A6.417 6.417 0 0 1 157.147 73a6.427 6.427 0 0 1 6.433 6.427 6.433 6.433 0 0 1-6.433 6.427c-3.546 0-6.417-2.882-6.417-6.427zm19.424 0A6.424 6.424 0 0 1 176.58 73a6.426 6.426 0 1 1 0 12.854 6.43 6.43 0 0 1-6.426-6.427zM111.871 98.86a6.427 6.427 0 0 1 6.426-6.435c3.547 0 6.416 2.88 6.416 6.435a6.418 6.418 0 0 1-6.416 6.415 6.422 6.422 0 0 1-6.426-6.415zm19.427 0c0-3.555 2.87-6.435 6.417-6.435a6.428 6.428 0 0 1 6.426 6.435c0 3.536-2.874 6.415-6.426 6.415a6.419 6.419 0 0 1-6.417-6.415zm19.432 0c0-3.555 2.87-6.435 6.417-6.435a6.434 6.434 0 0 1 6.433 6.435c0 3.536-2.881 6.415-6.433 6.415a6.42 6.42 0 0 1-6.417-6.415zm19.424 0c0-3.555 2.879-6.435 6.426-6.435s6.428 2.88 6.428 6.435c0 3.536-2.881 6.415-6.428 6.415s-6.426-2.879-6.426-6.415zm-19.424 19.432a6.41 6.41 0 0 1 6.417-6.426 6.42 6.42 0 1 1 0 12.843 6.415 6.415 0 0 1-6.417-6.417zm19.424 0c0-3.563 2.879-6.426 6.426-6.426s6.428 2.862 6.428 6.426c0 3.545-2.881 6.417-6.428 6.417s-6.426-2.872-6.426-6.417zm-19.424 19.415a6.414 6.414 0 0 1 6.417-6.417 6.42 6.42 0 1 1 0 12.843 6.41 6.41 0 0 1-6.417-6.426zm19.424 0c0-3.545 2.879-6.417 6.426-6.417s6.428 2.872 6.428 6.417c0 3.564-2.881 6.426-6.428 6.426s-6.426-2.862-6.426-6.426zm-97.15 19.426c0-3.536 2.881-6.41 6.428-6.41s6.426 2.874 6.426 6.41a6.427 6.427 0 1 1-12.854 0zm19.428 0c0-3.536 2.881-6.41 6.433-6.41a6.414 6.414 0 0 1 6.417 6.41c0 3.561-2.87 6.435-6.417 6.435a6.43 6.43 0 0 1-6.433-6.435zm-19.428 19.439c0-3.545 2.881-6.433 6.428-6.433s6.426 2.888 6.426 6.433c0 3.549-2.879 6.428-6.426 6.428s-6.428-2.879-6.428-6.428zm19.428 0a6.439 6.439 0 0 1 6.433-6.433c3.547 0 6.417 2.888 6.417 6.433 0 3.549-2.87 6.428-6.417 6.428a6.431 6.431 0 0 1-6.433-6.428zm19.439-19.439c0-3.536 2.872-6.41 6.426-6.41a6.413 6.413 0 0 1 6.416 6.41c0 3.561-2.869 6.435-6.416 6.435a6.424 6.424 0 0 1-6.426-6.435zm19.427 0c0-3.536 2.87-6.41 6.417-6.41 3.552 0 6.426 2.874 6.426 6.41a6.42 6.42 0 1 1-12.843 0zm19.432 0c0-3.536 2.87-6.41 6.417-6.41 3.552 0 6.433 2.874 6.433 6.41a6.43 6.43 0 0 1-6.433 6.435 6.422 6.422 0 0 1-6.417-6.435zm19.424 0c0-3.536 2.879-6.41 6.426-6.41s6.428 2.874 6.428 6.41a6.428 6.428 0 0 1-12.854 0zm-58.283 19.439c0-3.545 2.872-6.433 6.426-6.433 3.547 0 6.416 2.888 6.416 6.433 0 3.549-2.869 6.428-6.416 6.428a6.424 6.424 0 0 1-6.426-6.428zm19.427 0c0-3.545 2.87-6.433 6.417-6.433 3.552 0 6.426 2.888 6.426 6.433a6.426 6.426 0 0 1-6.426 6.428c-3.547 0-6.417-2.879-6.417-6.428zm19.432 0c0-3.545 2.87-6.433 6.417-6.433a6.439 6.439 0 0 1 6.433 6.433 6.432 6.432 0 0 1-6.433 6.428c-3.546 0-6.417-2.879-6.417-6.428zm19.424 0c0-3.545 2.879-6.433 6.426-6.433s6.428 2.888 6.428 6.433c0 3.549-2.881 6.428-6.428 6.428s-6.426-2.879-6.426-6.428z"></path></g></g></g></svg>